<svg id="svg" version="1.1" xmlns="http://www.w3.org/2000/svg" xmlns:xlink="http://www.w3.org/1999/xlink" width="400" height="400" viewBox="0, 0, 400,400"><g id="svgg"><path id="path0" d="M0.000 200.000 L 0.000 400.000 200.000 400.000 L 400.000 400.000 400.000 200.000 L 400.000 0.000 200.000 0.000 L 0.000 0.000 0.000 200.000 M202.566 76.191 C 205.116 77.617,205.286 76.609,200.951 85.786 C 197.270 93.581,197.452 93.036,198.283 93.787 C 198.874 94.322,199.049 94.024,202.605 86.422 C 204.644 82.065,206.369 78.500,206.440 78.500 C 206.686 78.500,232.671 93.737,232.791 93.951 C 232.857 94.070,230.296 98.967,227.099 104.833 C 216.698 123.918,217.567 122.137,218.244 122.971 C 218.826 123.687,218.933 123.514,226.429 109.765 C 230.606 102.103,234.155 95.621,234.316 95.361 C 234.546 94.989,258.597 108.431,260.316 109.893 C 260.398 109.963,260.465 118.678,260.465 129.261 L 260.465 148.502 255.030 158.456 C 250.008 167.654,249.627 168.470,250.020 169.205 C 250.654 170.389,250.490 170.624,255.500 161.367 C 259.321 154.307,260.197 152.901,260.333 153.604 C 260.465 154.283,260.496 178.828,260.366 180.178 C 260.348 180.368,259.892 180.783,259.354 181.102 L 258.374 181.681 254.621 176.174 C 251.254 171.232,250.345 170.118,250.328 170.917 C 250.308 171.886,249.635 172.132,249.053 171.382 L 248.445 170.598 241.806 182.829 C 236.259 193.047,234.975 195.183,234.000 195.811 C 232.292 196.912,215.005 207.019,214.499 207.213 C 214.235 207.315,209.343 201.615,201.887 192.522 C 190.060 178.098,189.691 177.686,189.196 178.393 C 188.915 178.794,188.806 179.281,188.953 179.477 C 189.100 179.673,194.354 186.106,200.629 193.773 C 206.904 201.439,212.109 207.896,212.195 208.120 C 212.451 208.787,201.426 215.109,200.000 215.114 C 199.085 215.117,196.710 213.868,189.000 209.330 C 183.592 206.147,178.529 203.183,177.750 202.743 C 176.016 201.764,175.329 203.565,182.333 190.713 C 185.633 184.657,188.333 179.488,188.333 179.225 C 188.333 178.762,187.411 177.773,187.224 178.036 C 187.172 178.108,184.524 182.967,181.338 188.833 C 178.152 194.700,175.336 199.828,175.082 200.228 L 174.619 200.956 172.226 199.524 C 170.910 198.736,166.533 196.182,162.500 193.849 C 158.467 191.516,155.029 189.475,154.861 189.315 C 154.678 189.140,155.164 187.711,156.070 185.761 C 156.903 183.967,160.303 176.691,163.625 169.591 C 170.243 155.451,169.906 156.316,169.083 155.584 C 168.426 154.998,169.293 153.325,160.496 172.167 C 158.013 177.483,155.274 183.277,154.408 185.041 L 152.833 188.248 146.381 184.477 C 142.833 182.404,139.841 180.618,139.732 180.510 C 139.495 180.272,139.429 119.665,139.667 119.671 C 139.758 119.673,146.281 127.545,154.161 137.163 C 168.359 154.493,168.493 154.644,168.944 153.784 L 169.398 152.917 170.084 153.603 L 170.770 154.289 174.169 147.061 C 177.368 140.259,178.473 137.904,184.795 124.417 C 191.181 110.790,192.579 107.809,195.064 102.520 C 197.323 97.710,197.664 96.759,197.365 96.103 C 196.707 94.659,197.183 93.795,189.061 111.167 C 187.604 114.283,185.269 119.271,183.872 122.250 C 182.476 125.229,180.191 130.104,178.794 133.083 C 177.398 136.063,175.054 141.050,173.587 144.167 C 172.119 147.283,170.637 150.483,170.292 151.278 C 169.948 152.072,169.536 152.672,169.377 152.611 C 169.218 152.550,162.450 144.413,154.338 134.530 L 139.589 116.560 139.538 113.425 C 139.510 111.701,139.565 110.175,139.660 110.035 C 139.859 109.742,186.943 82.215,187.486 82.074 C 187.683 82.023,189.792 84.832,192.172 88.317 C 195.938 93.831,196.554 94.581,196.917 94.096 C 197.622 93.153,197.454 92.814,193.299 86.798 C 191.081 83.585,189.318 80.911,189.383 80.856 C 190.032 80.298,199.601 75.000,199.960 75.000 C 200.222 75.000,201.394 75.536,202.566 76.191 M198.377 95.870 C 198.047 96.594,198.080 96.891,198.574 97.642 C 207.003 110.468,216.506 123.670,216.913 123.117 C 217.162 122.778,217.306 122.273,217.235 121.996 C 217.116 121.539,199.049 95.000,198.856 95.000 C 198.811 95.000,198.595 95.391,198.377 95.870 M218.355 124.948 C 217.923 125.990,216.036 123.128,244.619 164.767 C 248.418 170.302,248.468 170.358,248.913 169.509 C 249.160 169.037,249.253 168.467,249.118 168.242 C 248.759 167.643,220.724 126.724,219.658 125.243 L 218.753 123.986 218.355 124.948 M215.781 125.583 C 211.557 133.394,203.487 148.234,200.509 153.667 C 198.448 157.425,196.110 161.700,195.312 163.167 C 194.515 164.633,192.638 168.081,191.141 170.827 C 188.532 175.614,188.442 175.852,188.960 176.551 C 189.670 177.511,188.723 179.061,199.175 159.833 C 204.257 150.483,210.507 138.985,213.064 134.282 C 217.268 126.547,217.670 125.663,217.276 125.032 C 216.687 124.090,216.564 124.135,215.781 125.583 M170.387 155.516 C 169.924 156.532,168.914 155.147,179.799 168.428 C 183.814 173.326,187.224 177.333,187.376 177.333 C 189.114 177.333,179.763 164.482,171.176 155.071 C 170.864 154.729,170.705 154.818,170.387 155.516 M253.298 177.402 C 256.576 182.192,256.728 182.490,256.131 182.927 C 255.086 183.692,238.273 193.387,238.190 193.273 C 238.077 193.117,249.470 172.335,249.667 172.337 C 249.758 172.338,251.392 174.617,253.298 177.402 M185.000 260.244 L 185.000 273.667 182.667 273.667 L 180.333 273.667 180.333 260.389 C 180.333 253.086,180.399 247.046,180.479 246.966 C 180.559 246.886,181.609 246.821,182.812 246.821 L 185.000 246.821 185.000 260.244 M203.041 246.994 C 203.064 247.089,203.102 253.135,203.127 260.430 L 203.171 273.693 200.835 273.596 C 198.709 273.509,198.510 273.440,198.615 272.833 C 198.724 272.199,198.691 272.203,197.927 272.917 C 196.625 274.132,193.058 274.007,191.589 272.694 L 190.500 271.721 190.500 263.833 L 190.500 255.945 191.589 254.973 C 192.912 253.790,196.602 253.537,197.724 254.552 C 198.311 255.083,198.333 254.957,198.333 251.107 C 198.333 248.909,198.399 247.046,198.479 246.966 C 198.686 246.759,202.992 246.785,203.041 246.994 M241.333 248.848 L 241.333 251.029 238.929 250.931 L 236.524 250.833 236.560 249.083 C 236.580 248.121,236.612 247.183,236.632 247.000 C 236.651 246.813,237.690 246.667,239.000 246.667 L 241.333 246.667 241.333 248.848 M259.374 246.994 C 259.397 247.089,259.436 253.135,259.460 260.430 L 259.504 273.693 257.169 273.596 C 255.042 273.509,254.844 273.440,254.948 272.833 C 255.057 272.199,255.024 272.203,254.260 272.917 C 252.959 274.132,249.391 274.007,247.922 272.694 L 246.833 271.721 246.833 263.833 L 246.833 255.945 247.922 254.973 C 249.246 253.790,252.936 253.537,254.057 254.552 C 254.644 255.083,254.667 254.957,254.667 251.107 C 254.667 248.909,254.732 247.046,254.812 246.966 C 255.019 246.759,259.325 246.785,259.374 246.994 M99.667 250.167 L 99.667 252.000 96.000 252.000 L 92.333 252.000 92.333 255.500 L 92.333 259.000 95.451 259.000 L 98.570 259.000 98.519 260.750 L 98.469 262.500 95.401 262.596 L 92.333 262.692 92.333 266.346 L 92.333 270.000 96.167 270.000 L 100.000 270.000 100.000 271.833 L 100.000 273.667 93.748 273.667 L 87.496 273.667 87.540 261.083 C 87.564 254.162,87.603 248.463,87.626 248.417 C 87.648 248.371,90.367 248.333,93.667 248.333 L 99.667 248.333 99.667 250.167 M221.026 248.417 C 221.040 248.463,221.764 252.925,222.636 258.333 L 224.220 268.167 224.574 266.167 C 224.769 265.067,225.499 260.604,226.196 256.250 L 227.464 248.333 229.935 248.333 C 232.328 248.333,232.400 248.357,232.226 249.083 C 232.127 249.496,231.054 254.933,229.842 261.167 C 228.630 267.400,227.560 272.762,227.463 273.083 C 227.313 273.584,226.853 273.667,224.218 273.667 L 221.148 273.667 218.730 261.417 C 217.400 254.679,216.317 248.979,216.323 248.750 C 216.332 248.399,220.920 248.074,221.026 248.417 M109.333 254.519 C 109.333 254.989,109.404 254.989,110.074 254.519 C 111.550 253.485,116.667 254.147,116.667 255.372 C 116.667 255.566,117.128 255.338,117.692 254.863 C 119.027 253.740,122.227 253.633,123.904 254.655 C 125.423 255.582,125.550 256.430,125.523 265.500 L 125.500 273.500 123.163 273.596 L 120.826 273.693 120.850 266.096 C 120.877 257.255,120.950 257.667,119.364 257.667 C 117.340 257.667,117.333 257.694,117.333 266.067 L 117.333 273.667 115.000 273.667 L 112.667 273.667 112.667 265.648 L 112.667 257.630 111.083 257.732 L 109.500 257.833 109.411 265.750 L 109.321 273.667 106.994 273.667 L 104.667 273.667 104.667 263.833 L 104.667 254.000 107.000 254.000 C 108.890 254.000,109.333 254.099,109.333 254.519 M142.574 254.658 C 143.953 255.498,144.146 256.294,144.158 261.167 L 144.167 265.167 139.917 265.260 L 135.667 265.353 135.667 267.677 C 135.667 268.954,135.779 270.017,135.917 270.038 C 138.619 270.445,139.667 270.058,139.667 268.655 L 139.667 267.667 141.833 267.667 C 144.193 267.667,144.118 267.588,144.029 269.963 C 143.909 273.164,142.787 273.760,137.166 273.610 C 131.085 273.447,130.951 273.225,131.015 263.469 C 131.060 256.616,131.272 255.564,132.794 254.637 C 134.340 253.694,141.017 253.708,142.574 254.658 M154.011 254.917 C 154.020 255.705,154.078 255.759,154.427 255.304 C 155.030 254.520,156.163 254.000,157.271 254.000 C 158.219 254.000,158.521 255.454,158.051 257.750 C 158.023 257.887,157.400 258.000,156.667 258.000 C 154.090 258.000,154.000 258.288,154.000 266.500 L 154.000 273.667 151.667 273.667 L 149.333 273.667 149.333 263.833 L 149.333 254.000 151.667 254.000 C 153.987 254.000,154.000 254.005,154.011 254.917 M169.466 254.699 C 169.955 255.084,170.333 255.272,170.305 255.116 C 170.122 254.090,170.380 253.972,172.583 254.068 L 174.833 254.167 174.833 263.833 L 174.833 273.500 172.417 273.598 C 170.327 273.683,170.000 273.619,170.000 273.130 C 170.000 272.602,169.958 272.601,169.390 273.115 C 168.269 274.130,164.579 273.877,163.255 272.694 L 162.167 271.721 162.167 263.896 C 162.167 255.417,162.231 255.107,164.167 254.315 C 165.558 253.746,168.527 253.961,169.466 254.699 M241.333 263.833 L 241.333 273.667 239.000 273.667 L 236.667 273.667 236.667 263.833 L 236.667 254.000 239.000 254.000 L 241.333 254.000 241.333 263.833 M276.241 254.658 C 277.619 255.498,277.813 256.294,277.824 261.167 L 277.833 265.167 273.583 265.260 L 269.333 265.353 269.333 267.677 C 269.333 268.954,269.446 270.017,269.583 270.038 C 272.286 270.445,273.333 270.058,273.333 268.655 L 273.333 267.667 275.500 267.667 C 277.860 267.667,277.784 267.588,277.696 269.963 C 277.576 273.164,276.454 273.760,270.833 273.610 C 264.752 273.447,264.617 273.225,264.682 263.469 C 264.727 256.616,264.938 255.564,266.460 254.637 C 268.006 253.694,274.684 253.708,276.241 254.658 M295.243 255.091 L 296.167 256.015 296.167 263.833 L 296.167 271.652 295.242 272.576 C 294.013 273.806,285.652 274.027,284.367 272.864 C 283.035 271.659,282.323 259.375,283.405 256.272 C 284.284 253.749,293.031 252.877,295.243 255.091 M311.278 254.472 C 312.406 255.055,312.978 256.097,313.123 257.833 C 313.294 259.881,313.167 260.000,310.818 260.000 L 308.707 260.000 308.603 258.750 C 308.503 257.531,308.467 257.500,307.167 257.500 L 305.833 257.500 305.733 259.636 C 305.611 262.216,305.731 262.321,308.783 262.328 C 310.944 262.333,311.129 262.396,312.230 263.497 L 313.394 264.661 313.280 268.157 C 313.120 273.079,312.741 273.454,307.746 273.616 C 302.598 273.783,301.333 272.949,301.333 269.389 L 301.333 267.808 303.583 267.827 C 305.670 267.845,305.836 267.900,305.875 268.590 C 305.898 268.999,305.935 269.558,305.958 269.833 C 305.988 270.188,306.389 270.333,307.333 270.333 L 308.667 270.333 308.667 268.000 L 308.667 265.667 306.656 265.667 C 302.315 265.667,301.180 264.419,301.200 259.671 C 301.215 256.233,301.554 255.290,303.080 254.442 C 304.158 253.844,310.106 253.865,311.278 254.472 M136.083 257.554 C 135.576 257.759,135.498 261.982,136.000 262.036 C 136.183 262.055,136.858 262.071,137.500 262.071 C 139.762 262.071,139.667 262.168,139.667 259.869 C 139.667 258.233,139.544 257.691,139.139 257.536 C 138.524 257.300,136.686 257.311,136.083 257.554 M269.750 257.554 C 269.243 257.759,269.164 261.982,269.667 262.036 C 269.850 262.055,270.525 262.071,271.167 262.071 C 273.428 262.071,273.333 262.168,273.333 259.869 C 273.333 258.233,273.211 257.691,272.806 257.536 C 272.191 257.300,270.353 257.311,269.750 257.554 M288.250 257.592 C 287.720 257.704,287.667 258.276,287.667 263.822 C 287.667 270.399,287.627 270.260,289.500 270.157 C 291.874 270.027,291.667 270.633,291.667 263.833 C 291.667 258.195,291.617 257.664,291.083 257.634 C 290.762 257.615,290.125 257.571,289.667 257.534 C 289.208 257.498,288.571 257.523,288.250 257.592 M166.822 258.076 C 166.727 258.323,166.691 261.069,166.742 264.179 L 166.833 269.833 168.333 269.833 L 169.833 269.833 169.833 263.833 L 169.833 257.833 168.414 257.731 C 167.455 257.661,166.938 257.774,166.822 258.076 M195.155 258.076 C 195.061 258.323,195.025 261.069,195.075 264.179 L 195.167 269.833 196.667 269.833 L 198.167 269.833 198.167 263.833 L 198.167 257.833 196.747 257.731 C 195.789 257.661,195.271 257.774,195.155 258.076 M251.489 258.076 C 251.394 258.323,251.358 261.069,251.408 264.179 L 251.500 269.833 253.000 269.833 L 254.500 269.833 254.500 263.833 L 254.500 257.833 253.080 257.731 C 252.122 257.661,251.605 257.774,251.489 258.076 " stroke="none" fill="#ece4ec" fill-rule="evenodd"></path><path id="path1" d="M194.667 77.889 C 192.375 79.255,190.276 80.503,190.002 80.662 C 189.599 80.896,190.268 82.078,193.477 86.806 C 195.662 90.026,197.497 92.614,197.554 92.557 C 197.748 92.363,204.660 77.549,204.580 77.500 C 200.007 74.694,200.026 74.693,194.667 77.889 M205.908 79.737 C 205.626 80.340,203.956 83.888,202.197 87.622 C 200.439 91.356,199.000 94.512,199.000 94.636 C 199.000 95.012,217.212 121.461,217.534 121.552 C 217.803 121.628,232.379 95.158,232.585 94.221 C 232.647 93.938,208.328 79.414,206.659 78.737 C 206.529 78.684,206.191 79.134,205.908 79.737 M182.667 84.915 C 180.008 86.472,176.108 88.758,174.000 89.995 C 168.737 93.082,158.627 98.982,154.000 101.666 C 151.892 102.889,147.842 105.256,145.000 106.925 L 139.833 109.959 139.833 113.300 L 139.833 116.641 154.618 134.656 L 169.402 152.670 170.570 150.252 C 171.212 148.922,172.680 145.808,173.832 143.333 C 174.984 140.858,177.159 136.208,178.666 133.000 C 180.172 129.792,182.423 124.992,183.668 122.333 C 184.912 119.675,187.056 115.100,188.431 112.167 C 194.608 98.989,196.333 95.224,196.333 94.924 C 196.333 94.588,188.082 82.416,187.712 82.205 C 187.595 82.139,185.325 83.359,182.667 84.915 M197.054 93.989 C 196.771 94.800,196.821 95.116,197.329 95.739 L 197.948 96.500 198.305 95.568 C 198.588 94.830,198.550 94.465,198.126 93.818 C 197.457 92.797,197.470 92.795,197.054 93.989 M234.210 95.760 C 233.957 96.167,232.211 99.350,230.329 102.833 C 228.447 106.317,225.128 112.420,222.954 116.397 C 220.779 120.374,219.000 123.716,219.000 123.825 C 219.000 123.933,225.843 134.001,234.207 146.199 L 249.415 168.376 249.975 167.438 C 250.283 166.922,252.741 162.440,255.437 157.479 L 260.339 148.458 260.253 129.199 L 260.167 109.941 249.167 103.519 C 243.117 99.987,237.380 96.630,236.418 96.058 L 234.670 95.019 234.210 95.760 M195.575 101.734 C 194.364 104.355,191.924 109.575,190.154 113.333 C 188.384 117.092,186.064 122.042,184.998 124.333 C 183.933 126.625,181.685 131.425,180.003 135.000 C 174.884 145.883,171.000 154.290,171.000 154.485 C 171.000 154.729,187.747 175.129,188.119 175.339 C 188.276 175.428,189.642 173.250,191.154 170.500 C 199.762 154.842,216.333 124.256,216.333 124.025 C 216.333 123.742,198.891 98.156,198.183 97.401 C 197.860 97.056,197.334 97.930,195.575 101.734 M139.667 150.058 L 139.667 180.264 141.250 181.260 C 144.328 183.198,152.750 188.028,152.859 187.919 C 153.040 187.738,166.270 159.582,167.571 156.608 L 168.399 154.716 159.966 144.442 C 155.328 138.790,149.143 131.242,146.221 127.667 C 143.299 124.092,140.629 120.871,140.288 120.509 C 139.682 119.868,139.667 120.581,139.667 150.058 M217.055 123.180 C 216.740 123.869,216.772 124.185,217.226 124.877 L 217.783 125.727 218.248 124.840 C 218.653 124.068,218.644 123.848,218.182 123.143 C 217.527 122.144,217.527 122.144,217.055 123.180 M217.097 127.247 C 216.713 127.936,216.109 129.025,215.753 129.667 C 215.396 130.308,213.636 133.533,211.840 136.833 C 210.045 140.133,206.368 146.883,203.671 151.833 C 198.478 161.363,198.452 161.411,193.238 171.000 C 191.394 174.392,189.837 177.228,189.778 177.304 C 189.719 177.379,189.361 177.160,188.982 176.817 C 188.392 176.283,188.248 176.263,187.985 176.680 C 187.136 178.022,188.135 179.460,189.081 178.259 L 189.678 177.500 190.422 178.382 C 190.832 178.867,196.341 185.569,202.664 193.277 L 214.162 207.290 215.998 206.247 C 217.007 205.673,219.258 204.359,221.000 203.327 C 222.742 202.295,226.569 200.059,229.505 198.358 L 234.843 195.267 239.838 186.065 C 242.586 181.004,245.620 175.413,246.581 173.639 L 248.329 170.415 233.288 148.457 C 225.016 136.381,218.145 126.386,218.020 126.247 C 217.895 126.107,217.480 126.557,217.097 127.247 M169.055 153.847 C 168.740 154.536,168.772 154.851,169.226 155.544 L 169.783 156.394 170.234 155.533 C 170.624 154.789,170.611 154.558,170.138 153.836 C 169.469 152.816,169.524 152.815,169.055 153.847 M255.451 161.673 L 250.735 170.319 254.454 175.716 C 258.490 181.574,258.555 181.637,259.624 180.761 L 260.348 180.167 260.257 166.596 L 260.167 153.026 255.451 161.673 M169.101 158.254 C 168.287 160.029,166.498 163.849,162.588 172.167 C 161.122 175.283,159.545 178.658,159.084 179.667 C 158.622 180.675,157.438 183.212,156.453 185.303 C 155.468 187.395,154.701 189.138,154.748 189.177 C 154.992 189.376,172.686 199.660,173.580 200.122 C 174.399 200.546,174.688 200.573,174.897 200.249 C 175.045 200.020,177.881 194.850,181.198 188.759 L 187.230 177.685 179.252 167.926 C 174.864 162.558,170.948 157.831,170.550 157.421 L 169.826 156.674 169.101 158.254 M249.016 169.629 C 248.674 170.454,248.687 170.749,249.089 171.324 L 249.577 172.020 250.096 171.228 C 250.570 170.505,250.564 170.359,250.022 169.533 L 249.429 168.630 249.016 169.629 M247.149 176.917 C 245.894 179.254,243.407 183.829,241.623 187.083 C 239.838 190.338,238.453 193.000,238.543 193.000 C 238.634 193.000,242.737 190.646,247.662 187.769 L 256.615 182.538 253.268 177.602 C 251.427 174.888,249.810 172.667,249.676 172.667 C 249.541 172.667,248.404 174.579,247.149 176.917 M184.833 186.398 C 181.157 193.137,179.009 197.111,177.424 200.104 C 176.936 201.027,176.701 201.829,176.871 201.992 C 178.096 203.167,199.141 215.000,200.006 215.000 C 200.853 215.000,209.991 210.075,211.904 208.587 C 212.342 208.246,212.965 209.041,197.678 190.415 C 192.826 184.504,188.776 179.669,188.678 179.671 C 188.580 179.674,186.850 182.701,184.833 186.398 M180.428 260.319 L 180.433 273.667 182.635 273.667 L 184.838 273.667 184.835 260.417 L 184.833 247.167 182.628 247.069 L 180.422 246.972 180.428 260.319 M198.667 251.370 C 198.667 255.643,198.653 255.724,198.062 254.994 C 196.822 253.462,192.237 253.819,191.113 255.535 C 190.316 256.751,190.308 270.903,191.103 272.117 C 192.236 273.846,196.816 274.212,198.062 272.673 L 198.667 271.926 198.667 272.796 C 198.667 273.645,198.720 273.667,200.833 273.667 L 203.000 273.667 203.000 260.333 L 203.000 247.000 200.833 247.000 L 198.667 247.000 198.667 251.370 M236.667 248.833 L 236.667 250.667 239.000 250.667 L 241.333 250.667 241.333 248.833 L 241.333 247.000 239.000 247.000 L 236.667 247.000 236.667 248.833 M255.000 251.370 C 255.000 255.643,254.987 255.724,254.395 254.994 C 253.155 253.462,248.571 253.819,247.446 255.535 C 246.650 256.751,246.641 270.903,247.437 272.117 C 248.570 273.846,253.149 274.212,254.395 272.673 L 255.000 271.926 255.000 272.796 C 255.000 273.645,255.053 273.667,257.167 273.667 L 259.333 273.667 259.333 260.333 L 259.333 247.000 257.167 247.000 L 255.000 247.000 255.000 251.370 M87.811 248.634 C 87.731 248.713,87.667 254.378,87.667 261.222 L 87.667 273.667 93.768 273.667 L 99.869 273.667 99.843 272.083 L 99.817 270.500 95.992 270.333 L 92.167 270.167 92.167 266.333 L 92.167 262.500 95.250 262.404 L 98.333 262.308 98.333 260.667 L 98.333 259.025 95.250 258.929 L 92.167 258.833 92.126 255.427 L 92.086 252.021 95.784 251.927 L 99.483 251.833 99.509 250.250 C 99.524 249.379,99.453 248.648,99.351 248.626 C 98.801 248.506,87.932 248.513,87.811 248.634 M216.462 249.154 C 216.553 249.528,217.610 254.858,218.811 261.000 C 220.012 267.142,221.074 272.504,221.171 272.917 C 221.336 273.624,221.512 273.667,224.262 273.667 L 227.178 273.667 229.637 261.326 C 232.351 247.704,232.342 248.521,229.774 248.491 C 227.435 248.464,227.680 247.814,225.997 258.500 C 225.246 263.267,224.522 267.520,224.388 267.952 C 224.224 268.477,223.670 265.724,222.711 259.618 C 220.763 247.224,221.247 248.516,218.545 248.494 C 216.447 248.476,216.308 248.520,216.462 249.154 M104.767 263.833 L 104.754 273.667 106.967 273.667 L 109.180 273.667 109.164 266.092 C 109.147 257.815,109.256 257.333,111.143 257.333 C 112.915 257.333,113.000 257.729,113.000 266.024 L 113.000 273.667 115.161 273.667 L 117.321 273.667 117.411 265.758 L 117.500 257.849 118.403 257.532 C 119.016 257.316,119.579 257.338,120.153 257.600 L 121.000 257.986 121.000 265.826 L 121.000 273.667 123.182 273.667 L 125.364 273.667 125.266 264.860 C 125.167 256.115,125.161 256.047,124.376 255.212 C 122.895 253.636,118.195 253.723,117.328 255.343 C 117.011 255.936,116.959 255.928,116.206 255.176 C 114.742 253.712,111.272 253.662,109.750 255.083 L 109.000 255.783 109.000 254.891 C 109.000 254.019,108.955 254.000,106.890 254.000 L 104.780 254.000 104.767 263.833 M133.771 254.360 C 131.466 255.043,131.333 255.558,131.333 263.804 C 131.333 273.303,131.559 273.669,137.406 273.665 C 142.438 273.661,143.996 272.618,143.999 269.250 L 144.000 267.667 141.853 267.667 L 139.707 267.667 139.603 268.917 L 139.500 270.167 137.746 270.268 C 135.672 270.387,135.458 270.083,135.493 267.064 L 135.514 265.167 139.757 265.073 L 144.000 264.980 143.995 260.907 C 143.990 256.336,143.719 255.448,142.079 254.626 C 140.846 254.007,135.534 253.837,133.771 254.360 M149.434 263.833 L 149.428 273.667 151.631 273.667 L 153.833 273.667 153.843 266.499 C 153.855 258.342,153.924 258.126,156.618 257.764 L 158.000 257.579 158.000 255.746 L 158.000 253.913 156.750 254.110 C 155.899 254.244,155.208 254.652,154.583 255.391 L 153.667 256.475 153.667 255.237 L 153.667 254.000 151.554 254.000 L 149.440 254.000 149.434 263.833 M164.337 254.416 C 162.402 255.111,162.244 255.838,162.238 264.038 C 162.233 272.195,162.337 272.619,164.527 273.342 C 166.102 273.862,168.986 273.593,169.509 272.877 C 170.042 272.148,170.333 272.192,170.333 273.000 C 170.333 273.598,170.556 273.667,172.500 273.667 L 174.667 273.667 174.667 263.833 L 174.667 254.000 172.500 254.000 C 170.387 254.000,170.333 254.021,170.333 254.870 L 170.333 255.741 169.750 255.021 C 169.024 254.125,166.067 253.795,164.337 254.416 M236.767 263.833 L 236.762 273.667 238.967 273.667 L 241.172 273.667 241.127 264.083 C 241.102 258.813,241.063 254.387,241.041 254.250 C 241.018 254.112,240.049 254.000,238.886 254.000 L 236.773 254.000 236.767 263.833 M267.438 254.360 C 265.133 255.043,265.000 255.558,265.000 263.804 C 265.000 273.303,265.225 273.669,271.073 273.665 C 276.104 273.661,277.663 272.618,277.665 269.250 L 277.667 267.667 275.520 267.667 L 273.374 267.667 273.270 268.917 L 273.167 270.167 271.412 270.268 C 269.339 270.387,269.125 270.083,269.159 267.064 L 269.181 265.167 273.424 265.073 L 277.667 264.980 277.662 260.907 C 277.656 256.336,277.386 255.448,275.746 254.626 C 274.512 254.007,269.200 253.837,267.438 254.360 M285.771 254.350 C 283.462 255.057,283.333 255.556,283.333 263.833 C 283.333 273.592,283.543 273.880,290.449 273.605 C 296.069 273.381,296.105 273.319,296.098 264.023 C 296.093 256.428,295.903 255.384,294.394 254.653 C 293.291 254.119,287.223 253.905,285.771 254.350 M303.806 254.350 C 301.914 254.915,301.513 255.720,301.384 259.219 C 301.200 264.210,302.064 265.333,306.083 265.333 C 308.692 265.333,309.000 265.620,309.000 268.055 C 309.000 270.082,308.632 270.577,307.167 270.517 C 306.099 270.473,305.667 270.030,305.667 268.980 L 305.667 268.000 303.500 268.000 L 301.333 268.000 301.334 269.250 C 301.335 272.383,302.970 273.616,307.167 273.646 C 311.999 273.681,313.026 272.845,313.196 268.740 C 313.402 263.738,312.578 262.646,308.369 262.347 L 305.833 262.167 305.735 259.750 C 305.633 257.231,305.622 257.250,307.167 257.250 C 308.549 257.250,308.667 257.348,308.667 258.500 L 308.667 259.667 310.833 259.667 L 313.000 259.667 312.995 258.250 C 312.983 254.717,308.689 252.895,303.806 254.350 M139.594 257.917 C 139.750 258.237,139.868 259.325,139.855 260.333 L 139.833 262.167 137.667 262.167 L 135.500 262.167 135.478 260.333 C 135.446 257.685,135.703 257.333,137.667 257.333 C 138.901 257.333,139.380 257.478,139.594 257.917 M170.051 258.072 C 170.201 258.307,170.325 260.927,170.328 263.893 C 170.334 270.032,170.185 270.447,168.042 270.268 L 166.833 270.167 166.742 264.024 C 166.673 259.340,166.752 257.814,167.076 257.596 C 167.649 257.209,169.713 257.539,170.051 258.072 M198.022 257.678 C 198.620 257.999,198.667 258.428,198.667 263.655 C 198.667 270.055,198.531 270.448,196.375 270.268 L 195.167 270.167 195.075 264.178 C 194.965 256.927,195.288 256.215,198.022 257.678 M254.355 257.678 C 254.954 257.999,255.000 258.428,255.000 263.655 C 255.000 270.055,254.864 270.448,252.709 270.268 L 251.500 270.167 251.409 264.178 C 251.298 256.927,251.621 256.215,254.355 257.678 M273.260 257.917 C 273.416 258.237,273.534 259.325,273.522 260.333 L 273.500 262.167 271.333 262.167 L 269.167 262.167 269.145 260.333 C 269.113 257.685,269.370 257.333,271.333 257.333 C 272.568 257.333,273.047 257.478,273.260 257.917 M291.600 257.733 C 292.182 258.315,292.157 268.991,291.572 269.791 C 291.243 270.242,290.765 270.352,289.489 270.271 L 287.833 270.167 287.742 264.178 C 287.692 260.884,287.725 257.997,287.815 257.761 C 288.026 257.210,291.054 257.188,291.600 257.733 " stroke="none" fill="#b494e4" fill-rule="evenodd"></path><path id="path2" d="M198.256 94.060 C 198.488 94.347,198.625 94.789,198.560 95.041 C 198.496 95.293,198.506 95.387,198.583 95.248 C 198.660 95.109,198.876 95.090,199.062 95.205 C 199.267 95.332,199.255 95.143,199.031 94.725 C 198.829 94.347,198.476 93.925,198.248 93.788 C 197.927 93.595,197.929 93.657,198.256 94.060 M188.153 175.689 C 188.032 175.884,187.986 176.077,188.050 176.116 C 188.114 176.156,188.467 176.406,188.833 176.672 C 189.481 177.141,189.483 177.135,188.916 176.467 C 188.595 176.089,188.432 175.679,188.555 175.556 C 188.677 175.434,188.687 175.333,188.575 175.333 C 188.464 175.333,188.274 175.493,188.153 175.689 M198.479 247.102 C 198.387 247.341,198.355 249.404,198.408 251.685 L 198.503 255.833 198.668 251.249 C 198.831 246.731,198.809 246.242,198.479 247.102 M237.750 246.909 C 238.438 246.981,239.563 246.981,240.250 246.909 C 240.938 246.838,240.375 246.779,239.000 246.779 C 237.625 246.779,237.063 246.838,237.750 246.909 M254.812 247.102 C 254.720 247.341,254.688 249.404,254.741 251.685 L 254.837 255.833 255.002 251.249 C 255.164 246.731,255.142 246.242,254.812 247.102 M236.631 250.766 C 236.779 250.913,237.935 250.986,239.200 250.930 L 241.500 250.827 238.932 250.663 C 237.519 250.573,236.484 250.620,236.631 250.766 M109.039 254.802 C 109.001 255.749,109.014 255.757,109.667 255.167 C 110.422 254.484,110.586 254.042,109.861 254.644 C 109.486 254.955,109.357 254.911,109.233 254.434 C 109.137 254.064,109.063 254.205,109.039 254.802 M153.667 255.186 C 153.667 255.839,153.792 256.295,153.944 256.201 C 154.207 256.039,154.069 254.000,153.796 254.000 C 153.725 254.000,153.667 254.534,153.667 255.186 M162.077 257.667 C 162.077 258.308,162.146 258.571,162.230 258.250 C 162.314 257.929,162.314 257.404,162.230 257.083 C 162.146 256.762,162.077 257.025,162.077 257.667 M190.411 257.667 C 190.411 258.308,190.479 258.571,190.563 258.250 C 190.647 257.929,190.647 257.404,190.563 257.083 C 190.479 256.762,190.411 257.025,190.411 257.667 M246.744 257.667 C 246.744 258.308,246.813 258.571,246.896 258.250 C 246.980 257.929,246.980 257.404,246.896 257.083 C 246.813 256.762,246.744 257.025,246.744 257.667 M296.077 257.667 C 296.077 258.308,296.146 258.571,296.230 258.250 C 296.314 257.929,296.314 257.404,296.230 257.083 C 296.146 256.762,296.077 257.025,296.077 257.667 M195.214 257.589 C 195.127 257.730,195.643 257.790,196.361 257.721 C 197.079 257.653,197.667 257.537,197.667 257.465 C 197.667 257.217,195.373 257.333,195.214 257.589 M251.548 257.589 C 251.461 257.730,251.977 257.790,252.695 257.721 C 253.413 257.653,254.000 257.537,254.000 257.465 C 254.000 257.217,251.706 257.333,251.548 257.589 M131.140 264.000 C 131.140 267.575,131.189 269.037,131.249 267.250 C 131.308 265.462,131.308 262.537,131.249 260.750 C 131.189 258.962,131.140 260.425,131.140 264.000 M156.417 257.896 C 156.737 257.980,157.262 257.980,157.583 257.896 C 157.904 257.813,157.642 257.744,157.000 257.744 C 156.358 257.744,156.096 257.813,156.417 257.896 M198.332 263.599 L 198.498 269.500 198.591 263.858 C 198.642 260.755,198.567 258.100,198.425 257.957 C 198.283 257.815,198.241 260.354,198.332 263.599 M254.666 263.599 L 254.832 269.500 254.924 263.858 C 254.975 260.755,254.900 258.100,254.758 257.957 C 254.616 257.815,254.575 260.354,254.666 263.599 M264.806 264.000 C 264.806 267.575,264.855 269.037,264.915 267.250 C 264.975 265.462,264.975 262.537,264.915 260.750 C 264.855 258.962,264.806 260.425,264.806 264.000 M283.140 264.000 C 283.140 267.575,283.189 269.037,283.249 267.250 C 283.308 265.462,283.308 262.537,283.249 260.750 C 283.189 258.962,283.140 260.425,283.140 264.000 M291.804 263.667 C 291.804 266.875,291.854 268.188,291.915 266.583 C 291.976 264.979,291.976 262.354,291.915 260.750 C 291.854 259.146,291.804 260.458,291.804 263.667 M112.810 266.000 C 112.810 270.308,112.858 272.071,112.916 269.917 C 112.974 267.762,112.974 264.237,112.916 262.083 C 112.858 259.929,112.810 261.692,112.810 266.000 M170.136 263.833 C 170.136 266.950,170.186 268.270,170.248 266.766 C 170.309 265.263,170.310 262.713,170.248 261.100 C 170.187 259.487,170.137 260.717,170.136 263.833 M309.576 259.907 C 310.168 259.981,311.218 259.982,311.909 259.910 C 312.601 259.838,312.117 259.778,310.833 259.776 C 309.550 259.775,308.984 259.834,309.576 259.907 M95.360 262.314 C 93.203 262.442,92.193 262.633,92.135 262.925 C 92.088 263.159,92.126 263.196,92.219 263.008 C 92.316 262.813,93.657 262.667,95.341 262.667 C 96.965 262.667,98.387 262.517,98.500 262.333 C 98.613 262.150,98.660 262.029,98.603 262.064 C 98.546 262.099,97.087 262.211,95.360 262.314 M144.000 264.611 C 144.000 264.887,142.790 265.000,139.853 265.000 C 137.572 265.000,135.636 265.112,135.551 265.250 C 135.465 265.387,137.294 265.454,139.614 265.398 C 143.501 265.303,144.812 265.034,144.228 264.450 C 144.102 264.325,144.000 264.397,144.000 264.611 M277.667 264.611 C 277.667 264.887,276.457 265.000,273.520 265.000 C 271.239 265.000,269.303 265.112,269.217 265.250 C 269.132 265.387,270.961 265.454,273.281 265.398 C 277.167 265.303,278.478 265.034,277.894 264.450 C 277.769 264.325,277.667 264.397,277.667 264.611 M305.250 265.574 C 305.846 265.648,306.821 265.648,307.417 265.574 C 308.012 265.501,307.525 265.440,306.333 265.440 C 305.142 265.440,304.654 265.501,305.250 265.574 M308.773 268.000 C 308.773 269.192,308.834 269.679,308.908 269.083 C 308.982 268.487,308.982 267.512,308.908 266.917 C 308.834 266.321,308.773 266.808,308.773 268.000 M92.106 269.500 C 92.175 270.179,100.003 270.923,100.001 270.250 C 100.000 270.112,98.286 270.000,96.191 270.000 C 92.851 270.000,92.361 269.928,92.210 269.417 C 92.076 268.962,92.053 268.981,92.106 269.500 M166.966 270.100 C 167.122 270.255,167.755 270.330,168.374 270.266 C 169.472 270.153,169.465 270.146,168.092 269.984 C 167.318 269.892,166.811 269.944,166.966 270.100 M195.300 270.100 C 195.455 270.255,196.088 270.330,196.708 270.266 C 197.806 270.153,197.799 270.146,196.425 269.984 C 195.651 269.892,195.144 269.944,195.300 270.100 M251.633 270.100 C 251.788 270.255,252.422 270.330,253.041 270.266 C 254.139 270.153,254.132 270.146,252.759 269.984 C 251.984 269.892,251.478 269.944,251.633 270.100 M143.245 272.085 L 142.657 273.167 143.329 272.380 C 143.900 271.710,144.205 270.995,143.917 271.002 C 143.871 271.003,143.569 271.491,143.245 272.085 M276.912 272.085 L 276.324 273.167 276.995 272.380 C 277.567 271.710,277.872 270.995,277.583 271.002 C 277.537 271.003,277.235 271.491,276.912 272.085 " stroke="none" fill="#d4bcec" fill-rule="evenodd"></path><path id="path3" d="" stroke="none" fill="#e4e8e8" fill-rule="evenodd"></path><path id="path4" d="" stroke="none" fill="#e4e8e8" fill-rule="evenodd"></path></g></svg>